<?xml version="1.0" standalone="no"?>
<!DOCTYPE svg PUBLIC "-//W3C//DTD SVG 20010904//EN"
 "http://www.w3.org/TR/2001/REC-SVG-20010904/DTD/svg10.dtd">
<svg version="1.0" xmlns="http://www.w3.org/2000/svg"
 width="1235.000000pt" height="1235.000000pt" viewBox="0 0 1235.000000 1235.000000"
 preserveAspectRatio="xMidYMid meet">
<metadata>
Created by potrace 1.11, written by Peter Selinger 2001-2013
</metadata>
<g transform="translate(0.000000,1235.000000) scale(0.100000,-0.100000)"
fill="#000000" stroke="none">
<path d="M6435 9468 c-66 -101 -304 -353 -327 -346 -37 12 -47 127 -18 203 13
33 -10 44 -45 21 -56 -36 -210 -173 -364 -322 -144 -139 -164 -156 -173 -140
-20 35 -77 92 -111 111 l-34 18 -84 -69 c-339 -278 -770 -665 -874 -784 -120
-139 -194 -310 -237 -550 -22 -123 -15 -419 13 -565 21 -109 23 -144 21 -375
-2 -140 2 -302 8 -360 27 -258 109 -491 243 -687 43 -64 55 -91 64 -145 13
-74 46 -158 63 -158 6 0 9 8 6 18 -15 49 -18 74 -11 99 6 25 9 23 51 -48 24
-41 44 -78 44 -84 -1 -27 -49 -64 -104 -80 -56 -16 -100 -47 -122 -88 -8 -15
-29 -20 -97 -26 -129 -12 -131 -15 -124 -172 4 -69 9 -132 12 -141 11 -28 61
-41 135 -35 l70 6 0 -33 c0 -30 -4 -35 -45 -51 -93 -35 -144 -103 -170 -223
-36 -173 -4 -333 90 -440 40 -46 127 -102 160 -102 14 0 25 -10 33 -32 12 -34
80 -106 119 -127 12 -6 43 -11 68 -11 26 0 71 -7 100 -15 l52 -16 7 -87 c4
-48 9 -113 13 -144 5 -48 3 -58 -10 -58 -15 0 -16 -49 -3 -207 3 -41 3 -41
-39 -53 -92 -26 -134 -72 -79 -86 15 -4 176 1 358 10 376 19 584 20 836 5 96
-5 317 -12 490 -14 173 -2 542 -9 820 -16 278 -7 518 -9 533 -5 42 10 33 35
-23 59 -48 21 -50 24 -60 77 -35 180 -42 202 -61 207 -11 3 -21 15 -24 27 -7
33 -11 266 -4 266 4 0 28 -10 55 -22 68 -29 169 -29 247 1 80 31 157 109 187
188 17 46 21 74 18 138 -4 96 -27 150 -92 216 -40 40 -46 52 -61 129 -19 97
-67 250 -101 329 -13 29 -22 56 -19 60 2 4 34 20 70 35 36 16 65 34 65 41 0
32 -104 243 -185 376 -30 50 -55 93 -55 97 0 9 143 260 201 353 60 97 141 258
165 329 10 32 20 48 22 38 2 -10 10 -18 18 -18 11 0 14 17 14 75 0 72 10 95
25 58 14 -36 24 25 30 199 5 111 3 216 -5 293 -24 241 -25 262 -2 269 25 8 36
41 57 160 65 380 -75 781 -401 1146 -90 101 -876 899 -974 989 l-88 81 -24
-78 -24 -77 -27 85 c-14 47 -47 121 -72 164 -43 76 -135 206 -145 205 -3 0
-32 -41 -65 -91z m-1897 -1565 c-18 -27 -54 -86 -80 -133 -52 -92 -65 -102
-22 -17 29 56 121 197 130 197 3 0 -10 -21 -28 -47z m1307 -707 c141 -37 241
-119 307 -253 l42 -84 6 -157 c7 -154 7 -159 -22 -246 -40 -124 -97 -217 -192
-312 -93 -93 -183 -147 -300 -181 -314 -91 -602 118 -631 459 -9 103 23 255
79 373 98 206 262 345 476 404 52 14 178 13 235 -3z m1040 -31 c233 -93 399
-304 451 -573 62 -324 -100 -614 -374 -671 -275 -57 -584 150 -699 467 -30 82
-43 141 -33 147 4 3 4 22 -1 42 -13 58 -10 161 6 232 44 185 155 313 319 368
100 33 230 28 331 -12z m-682 -1791 c10 -61 -4 -74 -78 -74 -35 0 -70 3 -79 6
-19 7 -21 54 -3 76 17 22 33 26 98 27 l56 1 6 -36z m-193 12 c0 -7 -5 -27 -11
-45 -11 -31 -13 -32 -53 -26 -27 4 -49 16 -63 33 -38 45 -31 52 52 52 56 0 75
-3 75 -14z m410 8 c0 -3 -10 -28 -21 -55 l-21 -49 -74 0 -74 0 0 39 c0 70 2
71 101 71 49 0 89 -3 89 -6z m139 0 l31 -6 -22 -30 c-24 -34 -89 -67 -130 -68
-16 0 -28 2 -28 5 0 3 11 28 25 55 23 45 29 50 59 50 18 0 47 -3 65 -6z
m-2151 -373 c9 -5 12 -31 10 -92 -3 -91 -9 -98 -64 -85 -24 6 -25 9 -22 88 3
78 4 83 28 89 35 10 33 10 48 0z m759 -348 c-2 -16 -4 -5 -4 22 0 28 2 40 4
28 2 -13 2 -35 0 -50z m333 7 c0 -16 -7 -20 -30 -20 l-30 0 0 -105 0 -105 -45
0 -45 0 0 105 0 105 -30 0 c-23 0 -30 4 -30 20 0 19 7 20 105 20 98 0 105 -1
105 -20z m165 -90 c0 -92 2 -105 18 -108 15 -3 17 6 17 79 l0 83 45 -44 c38
-37 45 -50 45 -82 0 -29 -6 -41 -25 -54 -37 -24 -129 -22 -163 3 -25 19 -27
26 -30 106 -3 82 -2 86 25 106 15 12 36 21 47 19 20 -3 21 -10 21 -108z m1282
80 c0 -14 1 -31 2 -38 1 -7 25 -23 55 -36 57 -25 76 -48 76 -90 0 -31 -30 -52
-83 -59 -73 -9 -137 21 -137 65 0 15 8 18 45 18 41 0 45 -2 45 -25 0 -19 5
-25 21 -25 16 0 20 5 17 28 -2 21 -14 33 -53 54 -69 36 -77 45 -73 81 5 53 81
77 85 27z m123 -21 c0 -15 -8 -19 -40 -19 -47 0 -50 11 -13 38 31 22 53 14 53
-19z m-1029 -89 c26 -10 39 -23 56 -61 l22 -49 -49 0 -48 0 -17 51 c-20 59
-30 57 -26 -6 2 -34 -1 -45 -12 -45 -38 0 -73 94 -62 167 l6 44 48 -44 c26
-24 63 -50 82 -57z m239 65 c0 -21 5 -25 30 -25 23 0 30 -4 30 -20 0 -16 -7
-20 -30 -20 -28 0 -30 -3 -30 -35 0 -34 1 -35 40 -35 33 0 40 -3 40 -20 0 -18
-7 -20 -85 -20 l-85 0 0 100 0 100 45 0 c41 0 45 -2 45 -25z m485 15 c-3 -5
-14 -10 -23 -9 -14 0 -13 2 3 9 27 11 27 11 20 0z m-285 -18 c0 -10 -6 -24
-12 -31 -11 -10 -2 -11 42 -6 30 4 68 11 84 16 55 17 56 15 56 -71 l0 -80 -41
0 c-39 0 -41 1 -67 58 l-27 57 -3 -58 -3 -58 -35 3 c-19 2 -34 6 -34 11 0 4 0
45 0 92 0 78 2 85 20 85 13 0 20 -7 20 -18z m-1303 -134 c-2 -29 -3 -8 -3 47
0 55 1 79 3 53 2 -26 2 -71 0 -100z m728 -28 c3 -5 1 -10 -4 -10 -6 0 -11 5
-11 10 0 6 2 10 4 10 3 0 8 -4 11 -10z m1135 -165 l0 -135 -144 0 c-131 0
-144 2 -142 18 1 15 -12 17 -112 20 l-113 3 3 37 3 37 103 3 c82 2 102 6 102
17 0 12 -19 15 -105 15 l-105 0 0 35 0 35 110 0 c103 0 110 1 110 20 0 19 -7
20 -150 20 l-150 0 0 -130 0 -130 -140 0 -140 0 0 55 0 54 98 3 c78 2 97 6 97
18 0 12 -19 16 -97 18 l-98 3 0 34 0 35 100 0 c93 0 100 1 100 20 0 19 -7 20
-140 20 l-140 0 0 -130 0 -130 -55 0 -55 0 0 130 0 130 -40 0 -40 0 0 -130 0
-130 -35 0 c-28 0 -35 4 -35 20 0 19 -7 20 -105 20 l-105 0 0 111 0 110 -42
-3 -43 -3 0 -128 0 -127 -122 0 -123 0 0 135 0 135 875 0 875 0 0 -135z
m-1853 -117 c-1 -40 -3 -8 -3 72 0 80 2 112 3 73 2 -40 2 -106 0 -145z m242
-125 c6 -21 11 -46 11 -55 0 -36 19 -17 25 25 10 65 14 68 81 65 l59 -3 3
-117 3 -118 -46 0 -46 0 2 70 c1 39 0 73 -4 76 -3 3 -10 -21 -17 -53 -18 -92
-19 -93 -50 -93 -26 0 -29 4 -45 70 -18 72 -38 95 -34 38 1 -18 1 -50 0 -70
-1 -37 -2 -38 -41 -38 l-40 0 0 120 0 120 65 0 64 0 10 -37z m425 -68 c35
-138 35 -135 -18 -135 -35 0 -45 4 -49 20 -3 11 -14 20 -25 20 -11 0 -22 -9
-25 -20 -4 -16 -14 -20 -51 -20 -31 0 -46 4 -46 13 0 14 38 194 45 215 3 8 27
12 73 12 l70 0 26 -105z m236 85 c0 -16 -7 -20 -30 -20 l-30 0 0 -100 0 -100
-50 0 -50 0 0 100 0 100 -30 0 c-23 0 -30 4 -30 20 0 19 7 20 110 20 103 0
110 -1 110 -20z m230 0 c0 -16 -7 -20 -30 -20 l-30 0 0 -100 0 -100 -50 0 -50
0 0 100 c0 99 0 100 -24 100 -23 0 -41 22 -29 34 4 3 53 6 110 6 96 0 103 -1
103 -20z m200 1 c0 -15 -8 -21 -32 -23 -28 -2 -34 -8 -36 -30 -3 -26 -1 -28
33 -28 29 0 36 -3 33 -17 -2 -12 -14 -19 -36 -21 -28 -3 -32 -7 -32 -33 0 -27
2 -29 40 -29 33 0 40 -3 40 -20 0 -19 -7 -20 -90 -20 l-90 0 0 113 c0 63 3
117 7 120 3 4 42 7 85 7 70 0 78 -2 78 -19z m204 10 c26 -5 52 -14 57 -22 15
-24 10 -58 -11 -71 -11 -7 -20 -16 -20 -19 0 -4 9 -9 20 -12 17 -4 20 -14 20
-56 l0 -51 -44 0 -45 0 -3 52 c-2 41 -7 54 -20 56 -15 3 -18 -5 -18 -52 l0
-56 -50 0 -50 0 0 113 c0 63 3 117 7 120 9 9 96 8 157 -2z m296 -4 c14 -7 26
-23 28 -35 3 -20 -1 -22 -41 -22 -37 0 -46 4 -50 21 -7 26 -31 20 -35 -8 -2
-16 8 -25 50 -43 67 -28 88 -47 88 -78 0 -48 -25 -62 -112 -62 -84 0 -118 17
-118 60 0 17 7 20 45 20 41 0 45 -2 45 -24 0 -29 12 -39 35 -30 32 13 12 48
-44 76 -74 38 -82 47 -79 82 2 21 11 35 28 43 32 16 128 16 160 0z m-1823
-114 c-2 -21 -4 -6 -4 32 0 39 2 55 4 38 2 -18 2 -50 0 -70z m-16 -66 c-10 -9
-11 -8 -5 6 3 10 9 15 12 12 3 -3 0 -11 -7 -18z"/>
<path d="M5846 6598 c-36 -51 -5 -118 54 -118 17 0 39 9 50 20 45 45 11 120
-54 120 -25 0 -39 -7 -50 -22z"/>
<path d="M6485 6595 c-39 -38 -32 -86 17 -111 16 -8 38 -12 48 -9 25 8 60 53
60 77 0 27 -45 68 -75 68 -14 0 -37 -11 -50 -25z"/>
<path d="M5750 4018 c0 -7 -3 -30 -6 -50 -6 -35 -5 -38 16 -38 20 0 22 4 16
31 -3 17 -6 40 -6 50 0 11 -4 19 -10 19 -5 0 -10 -6 -10 -12z"/>
<path d="M6666 4053 c-3 -4 -6 -19 -6 -35 0 -39 34 -35 38 3 3 25 -18 46 -32
32z"/>
</g>
</svg>
