<?xml version="1.0" standalone="no"?>
<!DOCTYPE svg PUBLIC "-//W3C//DTD SVG 20010904//EN"
 "http://www.w3.org/TR/2001/REC-SVG-20010904/DTD/svg10.dtd">
<svg version="1.0" xmlns="http://www.w3.org/2000/svg"
 width="708.000000pt" height="708.000000pt" viewBox="0 0 708.000000 708.000000"
 preserveAspectRatio="xMidYMid meet">
<metadata>
Created by potrace 1.11, written by Peter Selinger 2001-2013
</metadata>
<g transform="translate(0.000000,708.000000) scale(0.100000,-0.100000)"
fill="#000000" stroke="none">
<path d="M3807 6841 c-97 -146 -301 -361 -343 -361 -31 0 -43 89 -23 180 6 28
9 54 6 56 -18 18 -146 -87 -396 -325 l-174 -166 -16 25 c-32 48 -59 75 -98 97
l-39 22 -130 -106 c-223 -182 -555 -476 -737 -652 -182 -176 -260 -320 -313
-579 -36 -173 -37 -431 -3 -622 20 -111 23 -159 24 -435 1 -274 3 -323 23
-426 40 -212 109 -386 221 -557 43 -65 61 -104 67 -139 7 -53 40 -150 54 -158
4 -3 6 21 3 54 -3 32 -1 61 4 64 5 3 30 -29 55 -71 l46 -77 -29 -36 c-22 -28
-40 -39 -69 -44 -49 -8 -98 -41 -125 -82 -19 -29 -24 -31 -105 -37 -47 -4 -94
-13 -107 -21 -21 -14 -23 -22 -21 -88 l2 -72 3 73 c2 39 7 72 11 72 4 0 3 -59
-1 -132 l-9 -132 28 -24 c26 -23 33 -24 105 -18 l78 7 4 -28 c3 -24 4 -23 6 8
2 53 -14 61 -102 53 -45 -4 -77 -3 -80 3 -4 6 -9 64 -13 131 l-7 121 24 5 c56
12 61 15 19 11 -30 -2 -40 -1 -29 5 9 5 54 11 100 14 62 3 72 2 39 -4 l-45 -8
45 2 c39 1 47 5 65 33 13 21 25 30 35 26 8 -3 29 -8 45 -11 30 -5 30 -6 5 -12
-53 -13 240 2 335 17 55 9 112 17 127 17 14 1 24 5 20 10 -3 5 2 7 11 3 10 -4
16 -2 14 5 -5 24 23 17 37 -9 9 -16 16 -22 16 -13 1 8 8 -3 16 -25 31 -84 43
-172 42 -317 0 -81 2 -151 5 -155 8 -14 30 -701 23 -729 -9 -34 -65 -95 -104
-111 -18 -8 -117 -20 -221 -28 -198 -15 -245 -11 -286 24 -47 40 -56 41 -15 2
53 -50 76 -61 133 -61 23 0 65 -6 92 -13 l50 -13 7 -55 c4 -30 10 -98 14 -151
6 -85 5 -98 -9 -98 -12 0 -15 -8 -12 -33 2 -17 6 -71 9 -119 l5 -87 -37 -12
c-54 -17 -112 -51 -112 -65 0 -23 65 -26 252 -15 302 20 753 25 983 12 116 -7
395 -14 620 -17 226 -2 538 -9 695 -14 352 -12 511 -12 529 -1 21 13 -1 38
-51 58 -42 17 -41 13 -68 153 -24 116 -25 120 -45 120 -20 0 -23 23 -28 177
l-4 132 41 -21 c29 -16 66 -23 128 -26 77 -4 92 -2 145 22 121 56 193 158 201
286 5 98 -20 169 -89 244 -29 32 -53 69 -59 92 l-10 39 4 -36 4 -36 -36 18
c-91 45 -206 43 -304 -7 -26 -13 -49 -24 -52 -24 -2 0 -7 20 -10 44 -4 25 -23
111 -41 192 -38 160 -37 163 20 164 38 0 135 23 214 50 33 12 65 19 70 16 4
-3 19 -33 31 -66 12 -33 25 -59 27 -57 2 3 -8 35 -23 71 -14 37 -25 68 -23 69
2 1 34 17 72 35 37 17 67 37 67 43 0 21 -117 255 -178 356 -34 56 -62 107 -62
112 0 11 143 265 194 346 72 113 151 274 181 370 6 19 7 19 16 2 18 -31 29 -7
29 64 0 66 10 88 24 53 13 -33 18 -3 26 153 9 169 -3 450 -20 467 -7 7 -10 3
-10 -12 0 -12 -38 -160 -86 -329 -138 -499 -155 -557 -166 -570 -5 -7 -6 -18
-2 -25 4 -7 3 -10 -1 -5 -5 4 -26 -21 -48 -55 -22 -35 -71 -95 -110 -135 -67
-69 -71 -72 -89 -56 -17 15 -19 15 -31 1 -111 -142 -136 -162 -137 -105 0 9
-5 17 -11 17 -6 0 -102 -70 -214 -155 -113 -85 -208 -155 -212 -155 -5 0 -68
30 -140 67 l-133 68 6 31 c6 31 -7 117 -27 182 -9 26 -14 30 -27 23 -13 -7
-26 1 -62 40 -43 48 -48 50 -130 65 -69 12 -96 23 -142 55 -31 21 -67 39 -80
39 -13 0 -40 14 -60 30 -43 36 -28 40 -197 -59 -68 -40 -110 -60 -122 -56 -11
4 -44 -8 -84 -31 -42 -23 -81 -37 -108 -38 -23 -1 -64 -13 -92 -27 l-50 -24
-14 -72 c-12 -56 -12 -85 -5 -124 l11 -50 -71 -57 c-52 -43 -71 -64 -71 -82 0
-20 -5 -25 -25 -25 -14 0 -39 -8 -57 -18 -18 -9 -49 -17 -70 -17 -39 0 -122
34 -173 70 -15 11 -30 17 -32 14 -3 -2 -13 11 -22 30 -11 24 -27 38 -50 46
-19 6 -40 18 -47 26 -7 8 -18 13 -25 10 -22 -9 -158 129 -224 228 -61 91 -65
95 -72 69 -4 -14 -4 -31 -1 -37 4 -8 3 -8 -6 0 -6 6 -13 20 -16 32 -2 11 -30
60 -62 109 -147 220 -245 459 -307 753 -54 251 -74 490 -42 490 26 0 74 50 91
94 18 47 19 56 16 256 -3 158 10 254 45 329 26 59 31 80 9 41 -23 -40 -17 -19
15 60 29 70 112 203 165 265 14 17 3 -4 -24 -45 -56 -86 -126 -210 -117 -210
3 0 17 22 30 49 14 27 54 92 90 146 36 54 63 101 61 105 -3 4 3 14 13 21 16
13 16 12 3 -6 -24 -33 7 0 69 73 167 198 403 287 630 237 36 -7 128 -34 205
-60 279 -91 502 -138 665 -138 124 -1 107 -5 325 83 44 18 123 46 175 62 161
51 356 49 508 -3 125 -43 273 -156 366 -280 38 -50 58 -66 127 -101 139 -69
283 -229 342 -378 69 -176 96 -309 97 -480 0 -67 6 -106 18 -133 l17 -39 27
21 c38 30 63 171 62 351 -1 330 -127 624 -403 940 -79 90 -1051 1070 -1062
1070 -5 0 -19 -35 -32 -77 -13 -43 -26 -71 -29 -63 -42 132 -62 186 -93 240
-43 77 -131 200 -143 200 -5 0 -30 -31 -55 -69z m1449 -3719 c-18 -16 -18 -16
-6 6 6 13 14 21 18 18 3 -4 -2 -14 -12 -24z m-1587 -227 c41 -36 77 -65 80
-65 4 0 24 12 45 26 l38 26 42 -39 c34 -33 45 -39 66 -33 40 13 46 11 58 -14
10 -23 10 -23 -26 -14 -20 5 -198 12 -396 15 l-359 6 54 33 54 33 34 -20 34
-20 96 65 c52 36 98 66 101 66 3 0 38 -30 79 -65z m-469 -80 c11 -13 8 -15
-20 -15 -28 0 -31 2 -20 15 7 8 16 15 20 15 4 0 13 -7 20 -15z m-78 -40 c3 3
8 -8 11 -24 8 -37 109 -124 267 -228 63 -42 119 -80 124 -84 5 -5 -16 -20 -49
-35 -57 -26 -62 -27 -194 -21 -75 3 -150 11 -166 17 -62 24 -108 89 -125 181
-12 63 7 109 45 109 21 0 25 7 36 55 11 51 14 54 29 40 9 -8 19 -13 22 -10z
m444 -42 c11 -59 -1 -68 -92 -68 -77 0 -79 1 -82 26 -2 14 2 37 7 52 10 26 13
27 85 27 l75 0 7 -37z m212 22 c1 -1 -6 -24 -15 -51 l-19 -49 -77 -3 -77 -3 0
54 c0 29 2 56 5 58 4 5 177 -1 183 -6z m-413 -32 c-9 -51 -11 -53 -53 -53 -42
0 -51 5 -75 40 -30 44 -24 50 59 50 l76 0 -7 -37z m569 28 c17 -6 16 -9 -10
-40 -15 -19 -43 -40 -61 -47 -32 -14 -93 -19 -93 -9 0 3 11 28 25 55 25 50 26
50 73 49 26 0 55 -4 66 -8z m131 -25 c22 14 24 13 50 -32 23 -39 26 -54 21
-93 -20 -147 -141 -231 -335 -231 -70 0 -96 5 -139 25 -31 14 -52 30 -50 37 4
13 34 34 178 123 44 28 113 83 153 123 69 69 73 72 85 53 13 -19 16 -19 37 -5z
m-1823 -145 c33 2 33 2 -7 10 -26 5 -8 6 50 3 146 -9 143 -24 -13 -54 -130
-24 -420 -24 -354 1 13 5 20 13 17 19 -3 5 1 10 10 10 9 0 13 -4 10 -10 -7
-12 -3 -12 19 -4 9 3 13 10 10 15 -3 5 -1 9 5 9 5 0 11 -4 13 -9 2 -5 40 -6
88 -1 65 5 74 8 40 10 l-45 3 45 6 c25 4 53 3 62 -1 9 -4 32 -7 50 -7z m-165
3 c-3 -3 -12 -4 -19 -1 -8 3 -5 6 6 6 11 1 17 -2 13 -5z m-252 -94 c-9 -16
-18 -30 -21 -30 -2 0 2 14 11 30 9 17 18 30 21 30 2 0 -2 -13 -11 -30z m-202
-340 c11 -13 10 -13 -5 -1 -14 10 -18 26 -16 70 l2 56 3 -55 c3 -30 10 -61 16
-70z m162 0 c18 -8 18 -9 -5 -9 -14 0 -32 4 -40 9 -12 8 -12 10 5 9 11 0 29
-4 40 -9z m-110 -18 c-3 -3 -11 0 -18 7 -9 10 -8 11 6 5 10 -3 15 -9 12 -12z
m1185 -91 c0 -14 -8 -21 -27 -23 l-28 -3 -3 -102 -3 -103 -44 0 -44 0 -3 103
-3 102 -27 3 c-20 2 -28 9 -28 23 0 18 8 19 105 19 97 0 105 -1 105 -19z m168
7 c5 -8 6 -22 1 -33 -9 -24 -11 -121 -3 -152 4 -13 13 -23 20 -23 11 0 14 19
14 82 l0 82 50 -49 c55 -54 61 -78 30 -118 -37 -47 -174 -45 -200 3 -5 10 -10
55 -10 99 0 70 3 83 22 101 25 23 61 26 76 8z m1279 0 c4 -7 6 -25 4 -40 -2
-23 4 -29 45 -48 27 -11 56 -28 66 -37 23 -21 23 -75 0 -96 -41 -37 -170 -28
-192 13 -21 39 -13 50 35 50 42 0 45 -2 45 -26 0 -19 4 -25 18 -22 11 2 17 12
17 28 0 21 -11 30 -60 55 -57 29 -60 32 -63 71 -3 34 1 42 20 52 31 15 55 15
65 0z m121 -31 c3 -25 1 -27 -37 -27 -49 0 -54 17 -13 42 34 22 46 18 50 -15z
m-1043 -83 c46 -24 57 -36 74 -76 l20 -48 -49 0 -48 0 -19 53 -18 52 -3 -52
c-3 -45 -6 -53 -23 -53 -28 0 -59 71 -59 137 0 80 7 88 41 49 16 -19 53 -46
84 -62z m255 51 c0 -21 5 -25 30 -25 23 0 30 -5 30 -19 0 -14 -8 -21 -27 -23
-24 -3 -28 -8 -28 -33 0 -27 3 -30 38 -33 29 -3 37 -7 37 -23 0 -17 -8 -19
-85 -19 l-85 0 0 100 0 100 45 0 c41 0 45 -2 45 -25z m199 8 c7 -13 5 -23 -6
-36 -18 -19 -22 -19 115 8 l62 13 0 -84 0 -84 -43 0 c-42 0 -43 1 -62 51 -11
28 -23 53 -27 56 -5 2 -8 -21 -8 -51 l0 -56 -40 0 -40 0 0 100 c0 92 1 100 20
100 10 0 23 -8 29 -17z m291 7 c-8 -5 -22 -10 -30 -10 -13 0 -13 1 0 10 8 5
22 10 30 10 13 0 13 -1 0 -10z m-860 -180 c12 -8 11 -10 -7 -10 -13 0 -23 5
-23 10 0 13 11 13 30 0z m1130 -170 l0 -140 -875 0 -875 0 0 140 0 140 875 0
875 0 0 -140z m878 -24 c113 -57 172 -151 172 -277 0 -65 -4 -85 -30 -137 -54
-108 -139 -163 -261 -170 -111 -7 -167 15 -246 93 -48 48 -65 73 -77 115 -9
29 -15 55 -13 57 2 1 18 -2 37 -7 58 -17 126 10 159 63 43 70 20 174 -48 215
l-30 18 31 19 c89 52 215 57 306 11z m-318 -71 c38 -20 60 -63 60 -116 0 -35
-6 -48 -39 -80 -34 -34 -44 -39 -86 -39 -42 0 -52 5 -86 39 -33 32 -39 45 -39
80 0 80 47 130 123 131 21 0 51 -7 67 -15z m-2168 -150 c14 -70 20 -73 32 -15
l11 55 68 3 67 3 0 -121 0 -120 -45 0 -45 0 -1 73 c-1 76 -3 73 -29 -30 -10
-38 -14 -43 -40 -43 -26 0 -30 5 -40 43 -26 103 -28 106 -29 30 l-1 -73 -45 0
-45 0 0 120 0 121 67 -3 67 -3 8 -40z m407 8 c5 -21 18 -75 29 -120 l19 -83
-48 0 c-39 0 -49 4 -54 20 -3 11 -15 20 -26 20 -12 0 -19 -7 -19 -20 0 -18 -7
-20 -54 -20 l-53 0 23 108 c13 59 24 113 24 120 0 8 22 12 75 12 l74 0 10 -37z
m251 18 c0 -14 -8 -21 -27 -23 l-28 -3 -3 -97 -3 -98 -49 0 -49 0 -3 98 -3 97
-27 3 c-20 2 -28 9 -28 23 0 18 8 19 110 19 102 0 110 -1 110 -19z m230 0 c0
-14 -8 -21 -27 -23 l-28 -3 -3 -97 -3 -98 -49 0 -50 0 0 100 0 100 -30 0 c-23
0 -30 4 -30 20 0 19 7 20 110 20 102 0 110 -1 110 -19z m200 0 c0 -15 -8 -21
-32 -23 -28 -2 -34 -8 -36 -30 -3 -26 -1 -28 32 -28 29 0 36 -4 36 -20 0 -16
-7 -20 -35 -20 -32 0 -35 -2 -35 -30 0 -28 2 -30 40 -30 33 0 40 -3 40 -20 0
-19 -7 -20 -90 -20 l-90 0 0 120 0 120 85 0 c77 0 85 -2 85 -19z m230 6 c31
-11 35 -17 38 -50 3 -32 0 -39 -17 -44 -27 -7 -27 -19 -1 -26 17 -4 20 -14 20
-56 l0 -51 -44 0 -45 0 -3 53 c-2 38 -7 52 -18 52 -11 0 -16 -14 -18 -52 l-3
-53 -50 0 -49 0 0 120 0 120 78 -1 c42 0 93 -5 112 -12z m270 0 c14 -7 26 -23
28 -35 3 -20 -1 -22 -41 -22 -37 0 -46 4 -50 21 -7 26 -32 20 -32 -7 0 -13 17
-27 60 -48 69 -32 75 -39 75 -84 0 -29 -5 -35 -37 -49 -27 -11 -56 -14 -96
-10 -65 6 -97 27 -97 64 0 21 4 23 44 23 39 0 45 -3 48 -22 4 -30 43 -32 43
-3 0 15 -16 28 -60 49 -69 32 -76 40 -73 81 2 20 11 34 28 42 32 16 128 16
160 0z m-2035 -857 c3 -5 1 -10 -4 -10 -6 0 -11 5 -11 10 0 6 2 10 4 10 3 0 8
-4 11 -10z"/>
<path d="M2318 2573 c12 -2 32 -2 45 0 12 2 2 4 -23 4 -25 0 -35 -2 -22 -4z"/>
<path d="M2900 1651 l0 -131 145 0 c138 0 145 1 145 20 0 19 -7 20 -105 20
l-104 0 -3 108 -3 107 -37 3 -38 3 0 -130z"/>
<path d="M3264 1767 c-2 -7 -3 -65 -2 -128 l3 -114 38 -3 37 -3 0 130 0 131
-35 0 c-20 0 -38 -6 -41 -13z"/>
<path d="M3450 1650 l0 -130 40 0 40 0 0 60 0 60 95 0 c78 0 95 3 95 15 0 12
-17 15 -95 15 l-95 0 0 35 0 35 100 0 c93 0 100 1 100 20 0 19 -7 20 -140 20
l-140 0 0 -130z"/>
<path d="M3817 1774 c-4 -4 -7 -63 -7 -131 l0 -123 150 0 c143 0 150 1 150 20
0 19 -7 20 -110 20 l-110 0 0 40 0 39 103 3 c59 2 102 7 102 13 0 6 -43 11
-102 13 l-103 3 0 34 0 34 108 3 c87 2 107 6 107 18 0 12 -24 15 -141 18 -77
1 -143 -1 -147 -4z"/>
<path d="M3110 1366 c0 -7 -3 -28 -6 -45 -6 -27 -4 -31 16 -31 18 0 21 4 16
23 -3 12 -6 32 -6 45 0 12 -4 22 -10 22 -5 0 -10 -6 -10 -14z"/>
<path d="M4020 1380 c0 -25 4 -31 18 -28 11 2 17 12 17 28 0 16 -6 26 -17 28
-14 3 -18 -3 -18 -28z"/>
<path d="M2900 4881 c-238 -63 -336 -92 -338 -103 -2 -8 2 -26 7 -40 l10 -26
113 29 c62 16 219 57 348 90 129 33 238 64 241 67 13 14 -11 72 -29 71 -9 0
-168 -40 -352 -88z"/>
<path d="M3867 4963 c-3 -5 -8 -21 -11 -38 l-6 -30 342 -89 c189 -49 349 -89
357 -90 18 -1 37 64 21 74 -11 7 -678 180 -692 180 -4 0 -9 -3 -11 -7z"/>
<path d="M3010 4593 c-56 -9 -159 -47 -220 -80 -100 -55 -224 -186 -282 -298
-48 -93 -89 -201 -87 -232 0 -10 11 14 23 53 84 265 254 441 495 514 61 19 89
22 174 18 91 -4 111 -9 180 -41 100 -46 173 -119 221 -220 42 -89 49 -128 47
-239 -2 -90 6 -178 18 -178 3 0 6 60 6 133 0 137 10 186 58 282 80 162 232
255 418 255 159 0 287 -58 419 -190 68 -67 96 -104 132 -175 49 -96 88 -209
88 -255 0 -16 5 -32 10 -35 14 -9 13 -1 -11 96 -108 439 -511 696 -844 539
-112 -53 -189 -141 -244 -276 -15 -38 -32 -68 -36 -67 -5 1 -14 19 -20 40 -39
128 -131 247 -234 302 -91 48 -216 70 -311 54z"/>
<path d="M3210 3960 c-42 -42 -10 -120 50 -120 34 0 70 38 70 73 0 36 -33 67
-70 67 -17 0 -39 -9 -50 -20z"/>
<path d="M3845 3955 c-31 -30 -31 -54 -4 -89 29 -36 83 -33 112 6 18 24 19 30
7 58 -22 52 -76 64 -115 25z"/>
<path d="M2412 3940 c0 -14 2 -19 5 -12 2 6 2 18 0 25 -3 6 -5 1 -5 -13z"/>
<path d="M2328 2493 c7 -3 16 -2 19 1 4 3 -2 6 -13 5 -11 0 -14 -3 -6 -6z"/>
<path d="M2278 2483 c7 -3 16 -2 19 1 4 3 -2 6 -13 5 -11 0 -14 -3 -6 -6z"/>
<path d="M2471 2485 c0 -5 9 -44 19 -85 11 -42 18 -57 15 -35 -5 40 -32 139
-34 120z"/>
<path d="M2203 2473 c9 -2 23 -2 30 0 6 3 -1 5 -18 5 -16 0 -22 -2 -12 -5z"/>
<path d="M2008 2463 c23 -2 61 -2 85 0 23 2 4 4 -43 4 -47 0 -66 -2 -42 -4z"/>
<path d="M1723 2423 c-13 -2 -23 -11 -23 -19 0 -8 -4 -13 -9 -10 -21 13 -32
-25 -29 -106 2 -66 6 -83 18 -83 8 0 15 -7 15 -15 0 -8 6 -15 13 -14 6 1 30 2
52 3 34 1 40 4 41 24 0 18 2 19 7 5 4 -10 7 27 7 81 0 55 -3 94 -7 88 -5 -8
-8 -6 -8 6 0 13 -9 17 -37 18 l-38 2 35 7 c19 4 30 8 23 9 -6 0 -17 3 -25 5
-7 2 -23 1 -35 -1z m-43 -125 l-5 -93 -3 79 c-3 70 1 106 10 106 2 0 1 -42 -2
-92z m108 80 c15 -15 17 -152 2 -143 -5 3 -10 -3 -10 -15 0 -21 -4 -24 -55
-34 -19 -4 -25 -3 -17 2 11 8 11 10 -2 15 -25 10 -23 162 2 176 23 14 65 14
80 -1z"/>
<path d="M2512 2253 c-1 -39 -6 -83 -12 -97 -5 -15 -6 -26 0 -26 13 0 22 75
18 140 -4 51 -4 50 -6 -17z"/>
<path d="M1820 2120 c0 -11 4 -20 9 -20 5 0 7 9 4 20 -3 11 -7 20 -9 20 -2 0
-4 -9 -4 -20z"/>
<path d="M1859 2082 c17 -12 -1 -24 -32 -21 -12 1 -35 -3 -52 -10 -125 -48
-175 -125 -194 -296 -11 -97 -3 -170 31 -260 29 -79 121 -174 193 -201 28 -10
53 -23 57 -28 5 -7 8 -7 8 -1 0 6 26 11 58 12 197 6 312 150 312 387 0 146
-67 278 -175 347 -30 19 -54 39 -55 46 0 7 -7 10 -15 7 -8 -4 -15 -1 -15 4 0
6 -8 11 -17 10 -10 0 -40 3 -68 7 -33 4 -45 3 -36 -3z m167 -77 c63 -31 117
-89 152 -165 37 -80 43 -240 13 -340 -40 -131 -135 -195 -291 -195 -92 0 -137
21 -203 95 -73 81 -92 140 -92 290 0 96 4 137 19 178 20 59 64 115 107 138 81
41 209 41 295 -1z"/>
<path d="M5241 1945 c1 -19 18 -51 18 -35 0 8 -4 22 -9 30 -5 8 -9 11 -9 5z"/>
<path d="M5276 1830 c4 -19 11 -44 15 -55 6 -14 7 -9 3 15 -4 19 -11 44 -15
55 -6 14 -7 9 -3 -15z"/>
<path d="M5302 1730 c0 -14 2 -19 5 -12 2 6 2 18 0 25 -3 6 -5 1 -5 -13z"/>
<path d="M1870 1241 c0 -6 4 -13 10 -16 6 -3 7 1 4 9 -7 18 -14 21 -14 7z"/>
</g>
</svg>
